<?xml version="1.0" standalone="no"?>
<!DOCTYPE svg PUBLIC "-//W3C//DTD SVG 20010904//EN"
 "http://www.w3.org/TR/2001/REC-SVG-20010904/DTD/svg10.dtd">
<svg version="1.0" xmlns="http://www.w3.org/2000/svg"
 width="200.000000pt" height="200.000000pt" viewBox="0 0 200.000000 200.000000"
 preserveAspectRatio="xMidYMid meet">
<metadata>
Created by potrace 1.11, written by Peter Selinger 2001-2013
</metadata>
<g transform="translate(0.000000,200.000000) scale(0.100000,-0.100000)"
fill="#000000" stroke="none">
<path d="M623 1095 c-96 -41 -80 -178 23 -192 76 -10 131 66 101 140 -8 19
-20 38 -26 42 -30 18 -69 22 -98 10z m69 -52 c36 -33 13 -93 -37 -93 -24 0
-55 33 -55 57 0 19 37 53 57 53 9 0 25 -7 35 -17z"/>
<path d="M650 999 c0 -5 5 -7 10 -4 6 3 10 8 10 11 0 2 -4 4 -10 4 -5 0 -10
-5 -10 -11z"/>
<path d="M202 1077 c-19 -20 -22 -35 -22 -101 0 -75 1 -77 23 -74 17 2 23 11
25 36 3 30 6 32 43 32 35 0 39 3 39 25 0 23 -4 25 -41 25 -33 0 -40 3 -37 18
2 13 15 18 56 20 44 3 52 6 52 23 0 17 -7 19 -58 19 -48 0 -62 -4 -80 -23z"/>
<path d="M360 1000 c0 -93 1 -100 20 -100 17 0 19 8 22 78 l3 77 33 3 c35 4
62 -11 62 -34 0 -10 -14 -14 -47 -14 l-47 0 26 -27 c15 -16 28 -39 30 -53 2
-17 10 -26 26 -28 19 -3 22 1 22 32 0 29 4 36 20 36 17 0 20 7 20 43 0 67 -27
87 -118 87 l-72 0 0 -100z"/>
<path d="M792 1077 c-17 -18 -22 -36 -22 -78 0 -78 23 -99 108 -99 l62 0 0 48
c0 38 -5 53 -23 70 -23 22 -24 22 -41 4 -15 -17 -15 -20 -1 -32 24 -20 18 -40
-13 -40 -36 0 -52 17 -52 55 0 43 16 55 72 55 41 0 48 3 48 20 0 18 -7 20 -58
20 -48 0 -62 -4 -80 -23z"/>
<path d="M1480 1075 c0 -8 9 -15 20 -15 11 0 20 7 20 15 0 8 -9 15 -20 15 -11
0 -20 -7 -20 -15z"/>
<path d="M1001 1054 c-25 -32 -28 -90 -5 -122 13 -19 24 -22 75 -22 l59 0 0
45 c0 45 0 45 -35 45 -19 0 -35 -4 -35 -10 0 -5 9 -10 21 -10 28 0 23 -44 -6
-48 -32 -4 -58 21 -58 56 0 44 19 62 64 62 28 0 39 4 39 15 0 11 -12 15 -49
15 -42 0 -53 -4 -70 -26z"/>
<path d="M1176 1016 c-30 -29 -33 -52 -10 -84 12 -17 25 -22 60 -22 53 0 59
18 7 22 -56 5 -55 28 1 28 38 0 46 3 46 18 0 27 -21 50 -52 57 -21 5 -33 1
-52 -19z m72 -23 c2 -9 -7 -13 -27 -13 -21 0 -31 5 -31 16 0 19 51 16 58 -3z"/>
<path d="M1377 1033 c-4 -3 -20 -6 -37 -5 l-30 1 0 -60 c0 -45 3 -59 14 -59
11 0 16 14 18 48 3 43 5 47 28 47 23 0 25 -4 28 -47 3 -40 6 -48 23 -48 16 0
19 7 19 45 0 55 -39 103 -63 78z"/>
<path d="M1732 1029 c-34 -13 -26 -50 16 -68 42 -19 41 -31 -3 -31 -19 0 -35
-4 -35 -10 0 -5 22 -10 49 -10 35 0 51 4 55 16 11 28 7 35 -29 50 -43 18 -45
34 -5 34 32 0 40 14 14 24 -20 8 -34 7 -62 -5z"/>
<path d="M1470 1021 c0 -6 5 -13 10 -16 6 -3 10 -26 10 -51 0 -32 4 -44 15
-44 12 0 15 13 15 60 0 57 -1 60 -25 60 -14 0 -25 -4 -25 -9z"/>
<path d="M1550 993 c0 -77 6 -83 71 -83 l59 0 0 60 c0 46 -3 60 -14 60 -11 0
-16 -14 -18 -47 -3 -44 -5 -48 -28 -48 -23 0 -25 4 -28 48 -3 39 -6 47 -23 47
-15 0 -19 -7 -19 -37z"/>
</g>
</svg>
